<mxfile host="app.diagrams.net" modified="2023-04-20T20:08:56.825Z" agent="Mozilla/5.0 (Windows NT 10.0; Win64; x64) AppleWebKit/537.36 (KHTML, like Gecko) Chrome/112.0.0.0 Safari/537.36" etag="Fb71r8V_tLW_GZmYcIqj" version="21.2.1" type="device">
  <diagram name="Página-1" id="ZyVY3dwu5Auu95brTQRN">
    <mxGraphModel dx="880" dy="1653" grid="1" gridSize="10" guides="1" tooltips="1" connect="1" arrows="1" fold="1" page="1" pageScale="1" pageWidth="827" pageHeight="1169" math="0" shadow="0">
      <root>
        <mxCell id="0" />
        <mxCell id="1" parent="0" />
        <mxCell id="Tc6bu9rvWu3FHS5VQ0Hn-8" value="" style="endArrow=open;html=1;rounded=0;endFill=0;exitX=0.5;exitY=0.5;exitDx=0;exitDy=0;exitPerimeter=0;entryX=0;entryY=0.5;entryDx=0;entryDy=0;" edge="1" parent="1" target="Tc6bu9rvWu3FHS5VQ0Hn-9">
          <mxGeometry width="50" height="50" relative="1" as="geometry">
            <mxPoint x="80" y="145" as="sourcePoint" />
            <mxPoint x="200" y="100" as="targetPoint" />
          </mxGeometry>
        </mxCell>
        <mxCell id="Tc6bu9rvWu3FHS5VQ0Hn-9" value="Encontrar un gimnasio" style="ellipse;whiteSpace=wrap;html=1;" vertex="1" parent="1">
          <mxGeometry x="160" y="20" width="120" height="80" as="geometry" />
        </mxCell>
        <mxCell id="Tc6bu9rvWu3FHS5VQ0Hn-10" value="" style="endArrow=open;html=1;rounded=0;endFill=0;exitX=0.5;exitY=0.5;exitDx=0;exitDy=0;exitPerimeter=0;entryX=0;entryY=0.5;entryDx=0;entryDy=0;" edge="1" parent="1" target="Tc6bu9rvWu3FHS5VQ0Hn-11">
          <mxGeometry width="50" height="50" relative="1" as="geometry">
            <mxPoint x="80" y="145" as="sourcePoint" />
            <mxPoint x="200" y="190" as="targetPoint" />
          </mxGeometry>
        </mxCell>
        <mxCell id="Tc6bu9rvWu3FHS5VQ0Hn-11" value="Reseñar un gimnasio" style="ellipse;whiteSpace=wrap;html=1;" vertex="1" parent="1">
          <mxGeometry x="170" y="200" width="120" height="80" as="geometry" />
        </mxCell>
        <mxCell id="Tc6bu9rvWu3FHS5VQ0Hn-12" value="Seleccionar un gimnasio" style="ellipse;whiteSpace=wrap;html=1;" vertex="1" parent="1">
          <mxGeometry x="260" y="-70" width="100" height="60" as="geometry" />
        </mxCell>
        <mxCell id="Tc6bu9rvWu3FHS5VQ0Hn-16" value="Ingresar ubicación" style="ellipse;whiteSpace=wrap;html=1;" vertex="1" parent="1">
          <mxGeometry x="310" width="100" height="60" as="geometry" />
        </mxCell>
        <mxCell id="Tc6bu9rvWu3FHS5VQ0Hn-17" value="Inspeccionar gimnasio" style="ellipse;whiteSpace=wrap;html=1;" vertex="1" parent="1">
          <mxGeometry x="310" y="70" width="100" height="60" as="geometry" />
        </mxCell>
        <mxCell id="Tc6bu9rvWu3FHS5VQ0Hn-18" value="Ingresar preferencias" style="ellipse;whiteSpace=wrap;html=1;" vertex="1" parent="1">
          <mxGeometry x="240" y="130" width="100" height="60" as="geometry" />
        </mxCell>
        <mxCell id="Tc6bu9rvWu3FHS5VQ0Hn-19" value="" style="endArrow=none;dashed=1;html=1;rounded=0;entryX=0.5;entryY=1;entryDx=0;entryDy=0;exitX=0;exitY=0.5;exitDx=0;exitDy=0;" edge="1" parent="1" source="Tc6bu9rvWu3FHS5VQ0Hn-18" target="Tc6bu9rvWu3FHS5VQ0Hn-9">
          <mxGeometry width="50" height="50" relative="1" as="geometry">
            <mxPoint x="280" y="150" as="sourcePoint" />
            <mxPoint x="330" y="100" as="targetPoint" />
          </mxGeometry>
        </mxCell>
        <mxCell id="Tc6bu9rvWu3FHS5VQ0Hn-20" value="" style="endArrow=none;dashed=1;html=1;rounded=0;entryX=1;entryY=0.5;entryDx=0;entryDy=0;exitX=0;exitY=0.5;exitDx=0;exitDy=0;" edge="1" parent="1" source="Tc6bu9rvWu3FHS5VQ0Hn-17" target="Tc6bu9rvWu3FHS5VQ0Hn-9">
          <mxGeometry width="50" height="50" relative="1" as="geometry">
            <mxPoint x="280" y="150" as="sourcePoint" />
            <mxPoint x="330" y="100" as="targetPoint" />
          </mxGeometry>
        </mxCell>
        <mxCell id="Tc6bu9rvWu3FHS5VQ0Hn-21" value="" style="endArrow=none;dashed=1;html=1;rounded=0;exitX=1;exitY=0.5;exitDx=0;exitDy=0;entryX=0;entryY=0.5;entryDx=0;entryDy=0;" edge="1" parent="1" source="Tc6bu9rvWu3FHS5VQ0Hn-9" target="Tc6bu9rvWu3FHS5VQ0Hn-16">
          <mxGeometry width="50" height="50" relative="1" as="geometry">
            <mxPoint x="280" y="150" as="sourcePoint" />
            <mxPoint x="330" y="100" as="targetPoint" />
          </mxGeometry>
        </mxCell>
        <mxCell id="Tc6bu9rvWu3FHS5VQ0Hn-22" value="" style="endArrow=none;dashed=1;html=1;rounded=0;exitX=1;exitY=0;exitDx=0;exitDy=0;entryX=0.5;entryY=1;entryDx=0;entryDy=0;" edge="1" parent="1" source="Tc6bu9rvWu3FHS5VQ0Hn-9" target="Tc6bu9rvWu3FHS5VQ0Hn-12">
          <mxGeometry width="50" height="50" relative="1" as="geometry">
            <mxPoint x="280" y="150" as="sourcePoint" />
            <mxPoint x="330" y="100" as="targetPoint" />
          </mxGeometry>
        </mxCell>
        <mxCell id="Tc6bu9rvWu3FHS5VQ0Hn-23" value="ext" style="text;html=1;align=center;verticalAlign=middle;resizable=0;points=[];autosize=1;strokeColor=none;fillColor=none;" vertex="1" parent="1">
          <mxGeometry x="250" y="-10" width="40" height="30" as="geometry" />
        </mxCell>
        <mxCell id="Tc6bu9rvWu3FHS5VQ0Hn-24" value="ext" style="text;html=1;align=center;verticalAlign=middle;resizable=0;points=[];autosize=1;strokeColor=none;fillColor=none;" vertex="1" parent="1">
          <mxGeometry x="270" y="20" width="40" height="30" as="geometry" />
        </mxCell>
        <mxCell id="Tc6bu9rvWu3FHS5VQ0Hn-25" value="ext" style="text;html=1;align=center;verticalAlign=middle;resizable=0;points=[];autosize=1;strokeColor=none;fillColor=none;" vertex="1" parent="1">
          <mxGeometry x="284" y="60" width="40" height="30" as="geometry" />
        </mxCell>
        <mxCell id="Tc6bu9rvWu3FHS5VQ0Hn-26" value="ext" style="text;html=1;align=center;verticalAlign=middle;resizable=0;points=[];autosize=1;strokeColor=none;fillColor=none;" vertex="1" parent="1">
          <mxGeometry x="217" y="103" width="40" height="30" as="geometry" />
        </mxCell>
        <mxCell id="Tc6bu9rvWu3FHS5VQ0Hn-28" value="" style="endArrow=open;html=1;rounded=0;entryX=1;entryY=0.5;entryDx=0;entryDy=0;endFill=0;dashed=1;" edge="1" parent="1" target="Tc6bu9rvWu3FHS5VQ0Hn-11">
          <mxGeometry width="50" height="50" relative="1" as="geometry">
            <mxPoint x="380" y="220" as="sourcePoint" />
            <mxPoint x="330" y="200" as="targetPoint" />
          </mxGeometry>
        </mxCell>
        <mxCell id="Tc6bu9rvWu3FHS5VQ0Hn-29" value="Ingresar valoración" style="ellipse;whiteSpace=wrap;html=1;" vertex="1" parent="1">
          <mxGeometry x="380" y="190" width="100" height="60" as="geometry" />
        </mxCell>
        <mxCell id="Tc6bu9rvWu3FHS5VQ0Hn-30" value="use" style="text;html=1;align=center;verticalAlign=middle;resizable=0;points=[];autosize=1;strokeColor=none;fillColor=none;" vertex="1" parent="1">
          <mxGeometry x="320" y="205" width="40" height="30" as="geometry" />
        </mxCell>
        <mxCell id="Tc6bu9rvWu3FHS5VQ0Hn-31" value="Ingresar comentario" style="ellipse;whiteSpace=wrap;html=1;" vertex="1" parent="1">
          <mxGeometry x="360" y="260" width="100" height="60" as="geometry" />
        </mxCell>
        <mxCell id="Tc6bu9rvWu3FHS5VQ0Hn-32" value="" style="endArrow=none;dashed=1;html=1;rounded=0;exitX=0;exitY=0.5;exitDx=0;exitDy=0;entryX=0.983;entryY=0.625;entryDx=0;entryDy=0;entryPerimeter=0;" edge="1" parent="1" source="Tc6bu9rvWu3FHS5VQ0Hn-31" target="Tc6bu9rvWu3FHS5VQ0Hn-11">
          <mxGeometry width="50" height="50" relative="1" as="geometry">
            <mxPoint x="280" y="250" as="sourcePoint" />
            <mxPoint x="330" y="200" as="targetPoint" />
          </mxGeometry>
        </mxCell>
        <mxCell id="Tc6bu9rvWu3FHS5VQ0Hn-33" value="ext" style="text;html=1;align=center;verticalAlign=middle;resizable=0;points=[];autosize=1;strokeColor=none;fillColor=none;" vertex="1" parent="1">
          <mxGeometry x="290" y="260" width="40" height="30" as="geometry" />
        </mxCell>
        <mxCell id="Tc6bu9rvWu3FHS5VQ0Hn-34" value="" style="endArrow=open;html=1;rounded=0;endFill=0;" edge="1" parent="1">
          <mxGeometry width="50" height="50" relative="1" as="geometry">
            <mxPoint x="540" y="289" as="sourcePoint" />
            <mxPoint x="460" y="289" as="targetPoint" />
          </mxGeometry>
        </mxCell>
        <mxCell id="Tc6bu9rvWu3FHS5VQ0Hn-35" value="Dueño de gimnasio" style="shape=umlActor;verticalLabelPosition=bottom;verticalAlign=top;html=1;outlineConnect=0;" vertex="1" parent="1">
          <mxGeometry x="515" y="250" width="50" height="80" as="geometry" />
        </mxCell>
        <mxCell id="Tc6bu9rvWu3FHS5VQ0Hn-36" value="Dueño de gimnasio" style="shape=umlActor;verticalLabelPosition=bottom;verticalAlign=top;html=1;outlineConnect=0;" vertex="1" parent="1">
          <mxGeometry x="60" y="450" width="50" height="80" as="geometry" />
        </mxCell>
        <mxCell id="Tc6bu9rvWu3FHS5VQ0Hn-37" value="Usuario" style="shape=umlActor;verticalLabelPosition=bottom;verticalAlign=top;html=1;outlineConnect=0;" vertex="1" parent="1">
          <mxGeometry x="54" y="106" width="50" height="80" as="geometry" />
        </mxCell>
        <mxCell id="Tc6bu9rvWu3FHS5VQ0Hn-38" value="Ver estadísticas" style="ellipse;whiteSpace=wrap;html=1;" vertex="1" parent="1">
          <mxGeometry x="110" y="380" width="100" height="60" as="geometry" />
        </mxCell>
        <mxCell id="Tc6bu9rvWu3FHS5VQ0Hn-39" value="Ingresar nuevo gimnasio" style="ellipse;whiteSpace=wrap;html=1;" vertex="1" parent="1">
          <mxGeometry x="187" y="429" width="100" height="60" as="geometry" />
        </mxCell>
        <mxCell id="Tc6bu9rvWu3FHS5VQ0Hn-40" value="Editar datos" style="ellipse;whiteSpace=wrap;html=1;" vertex="1" parent="1">
          <mxGeometry x="187" y="496" width="100" height="60" as="geometry" />
        </mxCell>
        <mxCell id="Tc6bu9rvWu3FHS5VQ0Hn-41" value="Ver cantidad de usuarios" style="ellipse;whiteSpace=wrap;html=1;" vertex="1" parent="1">
          <mxGeometry x="104" y="600" width="100" height="60" as="geometry" />
        </mxCell>
        <mxCell id="Tc6bu9rvWu3FHS5VQ0Hn-42" value="" style="endArrow=open;html=1;rounded=0;endFill=0;exitX=0.5;exitY=0.5;exitDx=0;exitDy=0;exitPerimeter=0;entryX=0;entryY=1;entryDx=0;entryDy=0;" edge="1" parent="1" source="Tc6bu9rvWu3FHS5VQ0Hn-36" target="Tc6bu9rvWu3FHS5VQ0Hn-38">
          <mxGeometry width="50" height="50" relative="1" as="geometry">
            <mxPoint x="280" y="450" as="sourcePoint" />
            <mxPoint x="330" y="400" as="targetPoint" />
          </mxGeometry>
        </mxCell>
        <mxCell id="Tc6bu9rvWu3FHS5VQ0Hn-43" value="" style="endArrow=open;html=1;rounded=0;endFill=0;exitX=0.5;exitY=0.5;exitDx=0;exitDy=0;exitPerimeter=0;entryX=0;entryY=0.5;entryDx=0;entryDy=0;" edge="1" parent="1" source="Tc6bu9rvWu3FHS5VQ0Hn-36" target="Tc6bu9rvWu3FHS5VQ0Hn-39">
          <mxGeometry width="50" height="50" relative="1" as="geometry">
            <mxPoint x="95" y="500" as="sourcePoint" />
            <mxPoint x="135" y="441" as="targetPoint" />
          </mxGeometry>
        </mxCell>
        <mxCell id="Tc6bu9rvWu3FHS5VQ0Hn-44" value="" style="endArrow=open;html=1;rounded=0;endFill=0;exitX=0.5;exitY=0.5;exitDx=0;exitDy=0;exitPerimeter=0;entryX=0;entryY=0.5;entryDx=0;entryDy=0;" edge="1" parent="1" source="Tc6bu9rvWu3FHS5VQ0Hn-36" target="Tc6bu9rvWu3FHS5VQ0Hn-40">
          <mxGeometry width="50" height="50" relative="1" as="geometry">
            <mxPoint x="105" y="510" as="sourcePoint" />
            <mxPoint x="145" y="451" as="targetPoint" />
          </mxGeometry>
        </mxCell>
        <mxCell id="Tc6bu9rvWu3FHS5VQ0Hn-45" value="" style="endArrow=open;html=1;rounded=0;endFill=0;entryX=0.5;entryY=0;entryDx=0;entryDy=0;exitX=0.5;exitY=0.5;exitDx=0;exitDy=0;exitPerimeter=0;" edge="1" parent="1" source="Tc6bu9rvWu3FHS5VQ0Hn-36" target="Tc6bu9rvWu3FHS5VQ0Hn-41">
          <mxGeometry width="50" height="50" relative="1" as="geometry">
            <mxPoint x="90" y="490" as="sourcePoint" />
            <mxPoint x="155" y="461" as="targetPoint" />
          </mxGeometry>
        </mxCell>
        <mxCell id="Tc6bu9rvWu3FHS5VQ0Hn-46" value="" style="endArrow=open;html=1;rounded=0;entryX=1;entryY=0;entryDx=0;entryDy=0;endFill=0;dashed=1;exitX=0;exitY=0.5;exitDx=0;exitDy=0;" edge="1" parent="1" source="Tc6bu9rvWu3FHS5VQ0Hn-47" target="Tc6bu9rvWu3FHS5VQ0Hn-39">
          <mxGeometry width="50" height="50" relative="1" as="geometry">
            <mxPoint x="330" y="410" as="sourcePoint" />
            <mxPoint x="330" y="410" as="targetPoint" />
          </mxGeometry>
        </mxCell>
        <mxCell id="Tc6bu9rvWu3FHS5VQ0Hn-47" value="Editar datos" style="ellipse;whiteSpace=wrap;html=1;" vertex="1" parent="1">
          <mxGeometry x="324" y="380" width="100" height="60" as="geometry" />
        </mxCell>
        <mxCell id="Tc6bu9rvWu3FHS5VQ0Hn-48" value="Editar datos" style="ellipse;whiteSpace=wrap;html=1;" vertex="1" parent="1">
          <mxGeometry x="323" y="447" width="100" height="60" as="geometry" />
        </mxCell>
        <mxCell id="Tc6bu9rvWu3FHS5VQ0Hn-49" value="" style="endArrow=open;html=1;rounded=0;entryX=1;entryY=0.5;entryDx=0;entryDy=0;endFill=0;dashed=1;exitX=0;exitY=0.5;exitDx=0;exitDy=0;" edge="1" parent="1" source="Tc6bu9rvWu3FHS5VQ0Hn-48" target="Tc6bu9rvWu3FHS5VQ0Hn-39">
          <mxGeometry width="50" height="50" relative="1" as="geometry">
            <mxPoint x="334" y="420" as="sourcePoint" />
            <mxPoint x="282" y="448" as="targetPoint" />
          </mxGeometry>
        </mxCell>
        <mxCell id="Tc6bu9rvWu3FHS5VQ0Hn-50" value="use" style="text;html=1;align=center;verticalAlign=middle;resizable=0;points=[];autosize=1;strokeColor=none;fillColor=none;" vertex="1" parent="1">
          <mxGeometry x="270" y="399" width="40" height="30" as="geometry" />
        </mxCell>
        <mxCell id="Tc6bu9rvWu3FHS5VQ0Hn-53" value="use" style="text;html=1;align=center;verticalAlign=middle;resizable=0;points=[];autosize=1;strokeColor=none;fillColor=none;" vertex="1" parent="1">
          <mxGeometry x="292" y="446" width="40" height="30" as="geometry" />
        </mxCell>
        <mxCell id="Tc6bu9rvWu3FHS5VQ0Hn-54" value="Leer reseñas" style="ellipse;whiteSpace=wrap;html=1;" vertex="1" parent="1">
          <mxGeometry x="191" y="562" width="100" height="60" as="geometry" />
        </mxCell>
        <mxCell id="Tc6bu9rvWu3FHS5VQ0Hn-55" value="" style="endArrow=open;html=1;rounded=0;endFill=0;entryX=0;entryY=0.5;entryDx=0;entryDy=0;" edge="1" parent="1" target="Tc6bu9rvWu3FHS5VQ0Hn-54">
          <mxGeometry width="50" height="50" relative="1" as="geometry">
            <mxPoint x="90" y="490" as="sourcePoint" />
            <mxPoint x="197" y="536" as="targetPoint" />
          </mxGeometry>
        </mxCell>
        <mxCell id="Tc6bu9rvWu3FHS5VQ0Hn-56" value="" style="endArrow=none;dashed=1;html=1;rounded=0;exitX=1;exitY=0.5;exitDx=0;exitDy=0;" edge="1" parent="1" source="Tc6bu9rvWu3FHS5VQ0Hn-54">
          <mxGeometry width="50" height="50" relative="1" as="geometry">
            <mxPoint x="280" y="460" as="sourcePoint" />
            <mxPoint x="340" y="592" as="targetPoint" />
          </mxGeometry>
        </mxCell>
        <mxCell id="Tc6bu9rvWu3FHS5VQ0Hn-58" value="Contestar" style="ellipse;whiteSpace=wrap;html=1;" vertex="1" parent="1">
          <mxGeometry x="340" y="562" width="100" height="60" as="geometry" />
        </mxCell>
        <mxCell id="Tc6bu9rvWu3FHS5VQ0Hn-59" value="ext" style="text;html=1;align=center;verticalAlign=middle;resizable=0;points=[];autosize=1;strokeColor=none;fillColor=none;" vertex="1" parent="1">
          <mxGeometry x="293" y="570" width="40" height="30" as="geometry" />
        </mxCell>
        <mxCell id="Tc6bu9rvWu3FHS5VQ0Hn-60" value="Administrador" style="shape=umlActor;verticalLabelPosition=bottom;verticalAlign=top;html=1;outlineConnect=0;" vertex="1" parent="1">
          <mxGeometry x="60" y="750" width="50" height="80" as="geometry" />
        </mxCell>
        <mxCell id="Tc6bu9rvWu3FHS5VQ0Hn-61" value="Moderar comentarios" style="ellipse;whiteSpace=wrap;html=1;" vertex="1" parent="1">
          <mxGeometry x="160" y="700" width="100" height="60" as="geometry" />
        </mxCell>
        <mxCell id="Tc6bu9rvWu3FHS5VQ0Hn-64" value="Verificar gimnasios" style="ellipse;whiteSpace=wrap;html=1;" vertex="1" parent="1">
          <mxGeometry x="160" y="767" width="100" height="60" as="geometry" />
        </mxCell>
        <mxCell id="Tc6bu9rvWu3FHS5VQ0Hn-66" value="" style="endArrow=open;html=1;rounded=0;exitX=0.5;exitY=0.5;exitDx=0;exitDy=0;exitPerimeter=0;endFill=0;entryX=0;entryY=0.5;entryDx=0;entryDy=0;" edge="1" parent="1" source="Tc6bu9rvWu3FHS5VQ0Hn-60" target="Tc6bu9rvWu3FHS5VQ0Hn-61">
          <mxGeometry width="50" height="50" relative="1" as="geometry">
            <mxPoint x="280" y="840" as="sourcePoint" />
            <mxPoint x="330" y="790" as="targetPoint" />
          </mxGeometry>
        </mxCell>
        <mxCell id="Tc6bu9rvWu3FHS5VQ0Hn-68" value="" style="endArrow=open;html=1;rounded=0;exitX=0.5;exitY=0.5;exitDx=0;exitDy=0;exitPerimeter=0;endFill=0;entryX=0;entryY=0.5;entryDx=0;entryDy=0;" edge="1" parent="1" source="Tc6bu9rvWu3FHS5VQ0Hn-60" target="Tc6bu9rvWu3FHS5VQ0Hn-64">
          <mxGeometry width="50" height="50" relative="1" as="geometry">
            <mxPoint x="95" y="800" as="sourcePoint" />
            <mxPoint x="170" y="740" as="targetPoint" />
          </mxGeometry>
        </mxCell>
        <mxCell id="Tc6bu9rvWu3FHS5VQ0Hn-69" value="Notificar datos erróneos" style="ellipse;whiteSpace=wrap;html=1;" vertex="1" parent="1">
          <mxGeometry x="160" y="834" width="100" height="60" as="geometry" />
        </mxCell>
        <mxCell id="Tc6bu9rvWu3FHS5VQ0Hn-70" value="" style="endArrow=open;html=1;rounded=0;exitX=0.5;exitY=0.5;exitDx=0;exitDy=0;exitPerimeter=0;endFill=0;entryX=0;entryY=0.5;entryDx=0;entryDy=0;" edge="1" parent="1" source="Tc6bu9rvWu3FHS5VQ0Hn-60" target="Tc6bu9rvWu3FHS5VQ0Hn-69">
          <mxGeometry width="50" height="50" relative="1" as="geometry">
            <mxPoint x="95" y="800" as="sourcePoint" />
            <mxPoint x="170" y="807" as="targetPoint" />
          </mxGeometry>
        </mxCell>
        <mxCell id="Tc6bu9rvWu3FHS5VQ0Hn-71" value="Usuarios no identificado" style="shape=umlActor;verticalLabelPosition=bottom;verticalAlign=top;html=1;outlineConnect=0;" vertex="1" parent="1">
          <mxGeometry x="54" y="980" width="50" height="80" as="geometry" />
        </mxCell>
        <mxCell id="Tc6bu9rvWu3FHS5VQ0Hn-72" value="Identificarse" style="ellipse;whiteSpace=wrap;html=1;" vertex="1" parent="1">
          <mxGeometry x="150" y="950" width="100" height="60" as="geometry" />
        </mxCell>
        <mxCell id="Tc6bu9rvWu3FHS5VQ0Hn-73" value="Registrase" style="ellipse;whiteSpace=wrap;html=1;" vertex="1" parent="1">
          <mxGeometry x="150" y="1020" width="100" height="60" as="geometry" />
        </mxCell>
        <mxCell id="Tc6bu9rvWu3FHS5VQ0Hn-74" value="" style="endArrow=open;html=1;rounded=0;exitX=0.5;exitY=0.5;exitDx=0;exitDy=0;exitPerimeter=0;endFill=0;entryX=0;entryY=0.5;entryDx=0;entryDy=0;" edge="1" parent="1" source="Tc6bu9rvWu3FHS5VQ0Hn-71" target="Tc6bu9rvWu3FHS5VQ0Hn-72">
          <mxGeometry width="50" height="50" relative="1" as="geometry">
            <mxPoint x="274" y="1070" as="sourcePoint" />
            <mxPoint x="324" y="1020" as="targetPoint" />
          </mxGeometry>
        </mxCell>
        <mxCell id="Tc6bu9rvWu3FHS5VQ0Hn-75" value="" style="endArrow=open;html=1;rounded=0;exitX=0.5;exitY=0.5;exitDx=0;exitDy=0;exitPerimeter=0;endFill=0;entryX=0;entryY=0.5;entryDx=0;entryDy=0;" edge="1" parent="1" source="Tc6bu9rvWu3FHS5VQ0Hn-71" target="Tc6bu9rvWu3FHS5VQ0Hn-73">
          <mxGeometry width="50" height="50" relative="1" as="geometry">
            <mxPoint x="89" y="1030" as="sourcePoint" />
            <mxPoint x="164" y="970" as="targetPoint" />
          </mxGeometry>
        </mxCell>
      </root>
    </mxGraphModel>
  </diagram>
</mxfile>
